<?xml version="1.0" encoding="UTF-8" standalone="no"?>
<svg
   xmlns:dc="http://purl.org/dc/elements/1.1/"
   xmlns:cc="http://creativecommons.org/ns#"
   xmlns:rdf="http://www.w3.org/1999/02/22-rdf-syntax-ns#"
   xmlns:svg="http://www.w3.org/2000/svg"
   xmlns="http://www.w3.org/2000/svg"
   xmlns:sodipodi="http://sodipodi.sourceforge.net/DTD/sodipodi-0.dtd"
   xmlns:inkscape="http://www.inkscape.org/namespaces/inkscape"
   version="1.1"
   id="svg2"
   xml:space="preserve"
   width="303.04001"
   height="89.613335"
   viewBox="0 0 303.04001 89.613335"
   sodipodi:docname="WUR_W_standard.eps"><metadata
     id="metadata8"><rdf:RDF><cc:Work
         rdf:about=""><dc:format>image/svg+xml</dc:format><dc:type
           rdf:resource="http://purl.org/dc/dcmitype/StillImage" /></cc:Work></rdf:RDF></metadata><defs
     id="defs6" /><sodipodi:namedview
     pagecolor="#ffffff"
     bordercolor="#666666"
     borderopacity="1"
     objecttolerance="10"
     gridtolerance="10"
     guidetolerance="10"
     inkscape:pageopacity="0"
     inkscape:pageshadow="2"
     inkscape:window-width="640"
     inkscape:window-height="480"
     id="namedview4" /><g
     id="g10"
     inkscape:groupmode="layer"
     inkscape:label="ink_ext_XXXXXX"
     transform="matrix(1.3333333,0,0,-1.3333333,0,89.613333)"><g
       id="g12"
       transform="scale(0.1)"><path
         d="M 427.672,224.258 V 392.152 H 316.949 V 224.258 H 243.5 231.676 V 478.266 H 512.949 V 224.258 Z m -99.125,29.25 v 126.984 h 87.519 V 253.508 c -22.5,0.453 -59.191,0.246 -87.519,0 z m 196.008,-3.047 V 489.93 H 220.066 V 250.676 L 207.43,249.66 c -48.883,-3.379 -80.985,-9.691 -80.985,-9.691 0,0 -5.476,-4.555 -6.183,-5.024 -6.149,-4.144 0.152,-5.668 4.336,-7.742 1.64,-0.812 1.73,-1.258 1.144,-2.945 -0.461,-1.336 -4.265,-2.098 -3.531,-4.403 1.523,-4.789 8.445,-0.199 8.012,-6.527 -0.524,-7.433 -17.16,-3.234 -18.836,-10.156 -1.313,-5.465 6.144,-0.453 6.054,-10.965 -0.089,-10.473 7.579,-20.953 29.094,-26.285 5.102,-1.258 29.07,-0.863 16.727,-7.981 -1.465,-0.843 -6.418,-0.718 -8.063,-0.886 -2.375,-0.246 -7.777,0.008 -9.289,-2.16 -2.332,-3.34 2.629,-3.25 1.871,-6.36 -2.804,-0.359 -8.801,-0.281 -6.172,-5.043 1.336,-2.41 5.762,-3.734 8.274,-3.597 13.394,0.722 11.547,-0.461 15.687,-0.918 -7.449,-1.45 -14.222,-9.192 13.91,-8.442 0.633,-4.262 8.211,-3.855 10.821,-3.277 175.176,38.82 250.926,22.265 251.437,33.027 -2.441,5.278 -27.136,4.711 -31.218,4.903 -16.024,0.761 -50.09,-0.922 -48.122,3.179 0.887,9.602 178.457,7.223 157.661,1.258 -0.95,-0.273 -13.414,-2.344 -14.965,-3.168 -9.664,-5.144 27.211,-6.172 31.043,-6.508 4.422,-0.402 15.426,-0.074 13.457,-4.851 -0.617,-1.469 -13.824,0.148 -13.274,-1.977 0.453,-1.738 7.899,-0.785 8.68,-2.012 5.344,-8.41 -65.301,-4.222 -101.84,-5.011 -10.695,-0.231 -31.652,-1.41 -42.586,-2.891 -18.465,-2.5 -2.722,-6.805 26.024,-9.465 15.398,-1.426 94.574,-7.781 161.781,-16.601 20.191,-3.664 26.226,6.25 21.695,8.953 -2.574,1.531 8.5,7.125 -3.886,12.406 -7.86,3.355 -1.387,4.723 -0.907,4.566 1.141,-0.363 17.129,-4.171 11.211,1.211 -3.812,3.465 2.61,1.434 3.774,1.52 14.898,1.133 11.433,6.758 12.371,5.84 -4.442,4.355 7.531,7.508 4.769,17.218 -0.808,2.844 -17.945,2.274 -6.691,4.629 1.281,0.27 16.937,-0.152 2.441,8.364 -3.355,1.972 -6.562,2.058 -11.371,3.152 -10.754,2.441 -2.683,7.844 2.656,6.953 6.536,-1.09 13.118,3.246 11.997,9.637 -1.368,8.668 -4.321,20.961 4.55,22.668 5.352,4.965 -12.054,10.828 -12.054,10.828 0,0 -18.621,8.586 -92.594,14.613 l -11.785,0.762"
         style="fill:#ffffff;fill-opacity:1;fill-rule:nonzero;stroke:none"
         id="path14" /><path
         d="m 839.324,451.82 -34.23,-94.066 h -13.582 l -24.434,66.75 c -7.965,-21.934 -16.59,-44.918 -24.426,-66.75 h -13.464 l -34.219,94.066 h 18.289 l 22.73,-62.054 22.727,62.054 h 16.851 l 22.739,-62.054 22.722,62.054 h 18.297"
         style="fill:#ffffff;fill-opacity:1;fill-rule:nonzero;stroke:none"
         id="path16" /><path
         d="m 1111.49,426.344 h -17.38 v 7.316 c 0,0.528 -0.39,0.914 -0.91,0.914 h -57.61 c -0.52,0 -0.91,-0.386 -0.91,-0.914 v -57.746 c 0,-0.519 0.39,-0.914 0.91,-0.914 h 57.61 c 0.52,0 0.91,0.395 0.91,0.914 v 17.762 h -21.28 v 17.246 h 38.66 v -35.008 c 0,-10.062 -8.22,-18.16 -18.29,-18.16 h -57.61 c -10.06,0 -18.16,8.098 -18.16,18.16 v 57.746 c 0,10.055 8.1,18.16 18.16,18.16 h 57.61 c 10.07,0 18.29,-8.105 18.29,-18.16 v -7.316"
         style="fill:#ffffff;fill-opacity:1;fill-rule:nonzero;stroke:none"
         id="path18" /><path
         d="m 1253.08,434.574 h -69.11 V 413.41 h 55.65 v -17.246 h -55.65 V 375 h 69.11 v -17.246 h -86.49 v 94.066 h 86.49 v -17.246"
         style="fill:#ffffff;fill-opacity:1;fill-rule:nonzero;stroke:none"
         id="path20" /><path
         d="m 1381.75,451.82 h 17.37 v -94.066 h -18.8 l -58,68.976 v -68.976 h -17.25 v 94.066 h 18.81 l 57.87,-68.976 v 68.976"
         style="fill:#ffffff;fill-opacity:1;fill-rule:nonzero;stroke:none"
         id="path22" /><path
         d="m 1449.84,451.82 h 17.24 v -94.066 h -17.24 v 94.066"
         style="fill:#ffffff;fill-opacity:1;fill-rule:nonzero;stroke:none"
         id="path24" /><path
         d="m 1596.91,451.82 h 17.38 v -94.066 h -18.82 l -57.99,68.976 v -68.976 h -17.25 v 94.066 h 18.81 l 57.87,-68.976 v 68.976"
         style="fill:#ffffff;fill-opacity:1;fill-rule:nonzero;stroke:none"
         id="path26" /><path
         d="m 1759.65,426.344 h -17.38 v 7.316 c 0,0.528 -0.39,0.914 -0.91,0.914 h -57.63 c -0.5,0 -0.9,-0.386 -0.9,-0.914 v -57.746 c 0,-0.519 0.4,-0.914 0.9,-0.914 h 57.63 c 0.52,0 0.91,0.395 0.91,0.914 v 17.762 h -21.29 v 17.246 h 38.67 v -35.008 c 0,-10.062 -8.23,-18.16 -18.29,-18.16 h -57.63 c -10.04,0 -18.16,8.098 -18.16,18.16 v 57.746 c 0,10.055 8.12,18.16 18.16,18.16 h 57.63 c 10.06,0 18.29,-8.105 18.29,-18.16 v -7.316"
         style="fill:#ffffff;fill-opacity:1;fill-rule:nonzero;stroke:none"
         id="path28" /><path
         d="m 1899.52,434.574 h -69.1 V 413.41 h 55.66 v -17.246 h -55.66 V 375 h 69.1 v -17.246 h -86.48 v 94.066 h 86.48 v -17.246"
         style="fill:#ffffff;fill-opacity:1;fill-rule:nonzero;stroke:none"
         id="path30" /><path
         d="m 2026.57,451.82 h 17.38 v -94.066 h -18.81 l -58,68.976 v -68.976 h -17.25 v 94.066 h 18.81 l 57.87,-68.976 v 68.976"
         style="fill:#ffffff;fill-opacity:1;fill-rule:nonzero;stroke:none"
         id="path32" /><path
         d="m 896.457,406.613 9.41,27.047 c 0.238,0.625 0.391,0.914 0.91,0.914 h 28.59 c 0.52,0 0.625,-0.238 0.91,-0.914 l 9.426,-27.047 z m 56.84,27.047 c -3.777,11.094 -8.106,18.16 -18.156,18.16 h -28.364 c -10.05,0 -14.379,-7.066 -18.156,-18.16 l -27.266,-75.906 h 17.844 l 11.418,31.625 h 60.914 l 11.543,-31.625 h 17.489 l -27.266,75.906"
         style="fill:#ffffff;fill-opacity:1;fill-rule:nonzero;stroke:none"
         id="path34" /><path
         d="m 748.766,283.609 h 8.351 V 238.02 c 0,-5.586 -4.488,-10.067 -10.051,-10.067 h -35.558 c -5.563,0 -10.047,4.481 -10.047,10.067 v 45.589 h 8.344 V 238.02 c 0,-0.946 0.777,-1.704 1.703,-1.704 h 35.558 c 0.93,0 1.7,0.758 1.7,1.704 v 45.589"
         style="fill:#ffffff;fill-opacity:1;fill-rule:nonzero;stroke:none"
         id="path36" /><path
         d="m 825.027,283.609 h 8.348 v -55.656 h -9.887 l -37.418,44.531 v -44.531 h -8.351 v 55.656 h 9.902 l 37.406,-44.523 v 44.523"
         style="fill:#ffffff;fill-opacity:1;fill-rule:nonzero;stroke:none"
         id="path38" /><path
         d="m 854.223,283.609 h 8.336 v -55.656 h -8.336 v 55.656"
         style="fill:#ffffff;fill-opacity:1;fill-rule:nonzero;stroke:none"
         id="path40" /><path
         d="m 934.953,283.609 h 9.59 l -32.078,-55.656 h -8.348 l -32.16,55.656 h 9.66 l 26.668,-46.207 26.668,46.207"
         style="fill:#ffffff;fill-opacity:1;fill-rule:nonzero;stroke:none"
         id="path42" /><path
         d="m 1003.2,275.273 h -42.669 v -15.3 h 34.324 v -8.379 h -34.324 v -15.278 h 42.669 v -8.363 h -51.005 v 55.656 h 51.005 v -8.336"
         style="fill:#ffffff;fill-opacity:1;fill-rule:nonzero;stroke:none"
         id="path44" /><path
         d="m 1031.62,275.195 v -19.007 l 37.25,-0.016 c 0.93,0 1.71,0.766 1.71,1.695 v 15.621 c 0,0.93 -0.78,1.692 -1.71,1.692 z m 47.3,-17.328 c 0,-5.469 -4.48,-10.058 -10.05,-10.058 h -5.64 l 15.69,-18.684 v -1.172 h -9.9 l -16.7,19.856 h -19.01 c -0.61,0 -1.15,0.105 -1.69,0.16 v -20.016 h -8.35 v 55.59 h 45.6 c 5.57,0 10.05,-4.574 10.05,-10.055 v -15.621"
         style="fill:#ffffff;fill-opacity:1;fill-rule:nonzero;stroke:none"
         id="path46" /><path
         d="m 1485.14,275.195 v -19.007 l 37.26,-0.016 c 0.92,0 1.7,0.766 1.7,1.695 v 15.621 c 0,0.93 -0.78,1.692 -1.7,1.692 z m 47.3,-17.328 c 0,-5.469 -4.48,-10.058 -10.04,-10.058 h -5.65 l 15.69,-18.684 v -1.172 h -9.89 l -16.7,19.856 h -19.01 c -0.61,0 -1.16,0.105 -1.7,0.16 v -20.016 h -8.34 v 55.59 h 45.6 c 5.56,0 10.04,-4.574 10.04,-10.055 v -15.621"
         style="fill:#ffffff;fill-opacity:1;fill-rule:nonzero;stroke:none"
         id="path48" /><path
         d="m 1848.96,275.195 v -19.007 l 37.25,-0.016 c 0.93,0 1.71,0.766 1.71,1.695 v 15.621 c 0,0.93 -0.78,1.692 -1.71,1.692 z m 47.3,-17.328 c 0,-5.469 -4.48,-10.058 -10.05,-10.058 h -5.65 l 15.7,-18.684 v -1.172 h -9.89 l -16.7,19.856 h -19.01 c -0.62,0 -1.16,0.105 -1.7,0.16 v -20.016 h -8.35 v 55.59 h 45.6 c 5.57,0 10.05,-4.574 10.05,-10.055 v -15.621"
         style="fill:#ffffff;fill-opacity:1;fill-rule:nonzero;stroke:none"
         id="path50" /><path
         d="m 1154.48,270.316 h -8.34 v 3.254 c 0,0.914 -0.77,1.703 -1.7,1.703 h -35.56 c -0.92,0 -1.69,-0.789 -1.69,-1.703 v -11.91 c 0,-0.933 0.77,-1.687 1.69,-1.687 h 35.56 c 5.57,0 10.04,-4.508 10.04,-10.071 V 238.02 c 0,-5.586 -4.47,-10.067 -10.04,-10.067 h -35.56 c -5.56,0 -10.04,4.481 -10.04,10.067 v 3.234 h 8.35 v -3.234 c 0,-0.946 0.77,-1.704 1.69,-1.704 h 35.56 c 0.93,0 1.7,0.758 1.7,1.704 v 11.882 c 0,0.934 -0.77,1.692 -1.7,1.692 h -35.56 c -5.56,0 -10.04,4.504 -10.04,10.066 v 11.91 c 0,5.555 4.48,10.039 10.04,10.039 h 35.56 c 5.57,0 10.04,-4.484 10.04,-10.039 v -3.254"
         style="fill:#ffffff;fill-opacity:1;fill-rule:nonzero;stroke:none"
         id="path52" /><path
         d="m 1174.94,283.609 h 8.34 v -55.656 h -8.34 v 55.656"
         style="fill:#ffffff;fill-opacity:1;fill-rule:nonzero;stroke:none"
         id="path54" /><path
         d="m 1252.65,283.609 v -8.336 H 1229 v -47.32 h -8.35 v 47.32 H 1197 v 8.336 h 55.65"
         style="fill:#ffffff;fill-opacity:1;fill-rule:nonzero;stroke:none"
         id="path56" /><path
         d="m 1318.15,283.609 -25.68,-34.773 v -20.883 h -8.35 v 20.883 l -25.65,34.773 h 9.82 l 20.01,-25.351 19.94,25.351 h 9.91"
         style="fill:#ffffff;fill-opacity:1;fill-rule:nonzero;stroke:none"
         id="path58" /><path
         d="m 1603.9,275.273 h -42.66 v -15.3 h 34.33 v -8.379 h -34.33 v -15.278 h 42.66 v -8.363 h -51.01 v 55.656 h 51.01 v -8.336"
         style="fill:#ffffff;fill-opacity:1;fill-rule:nonzero;stroke:none"
         id="path60" /><path
         d="m 1676.54,270.316 h -8.35 v 3.254 c 0,0.914 -0.78,1.703 -1.71,1.703 h -35.55 c -0.93,0 -1.7,-0.789 -1.7,-1.703 v -11.91 c 0,-0.933 0.77,-1.687 1.7,-1.687 h 35.55 c 5.57,0 10.06,-4.508 10.06,-10.071 V 238.02 c 0,-5.586 -4.49,-10.067 -10.06,-10.067 h -35.55 c -5.58,0 -10.04,4.481 -10.04,10.067 v 3.234 h 8.34 v -3.234 c 0,-0.946 0.77,-1.704 1.7,-1.704 h 35.55 c 0.93,0 1.71,0.758 1.71,1.704 v 11.882 c 0,0.934 -0.78,1.692 -1.71,1.692 h -35.55 c -5.58,0 -10.04,4.504 -10.04,10.066 v 11.91 c 0,5.555 4.46,10.039 10.04,10.039 h 35.55 c 5.57,0 10.06,-4.484 10.06,-10.039 v -3.254"
         style="fill:#ffffff;fill-opacity:1;fill-rule:nonzero;stroke:none"
         id="path62" /><path
         d="m 1748.07,275.273 h -42.65 v -15.3 h 34.3 v -8.379 h -34.3 v -15.278 h 42.65 v -8.363 h -51 v 55.656 h 51 v -8.336"
         style="fill:#ffffff;fill-opacity:1;fill-rule:nonzero;stroke:none"
         id="path64" /><path
         d="m 1810.07,255.797 -6.9,17.773 c -0.41,1.059 -0.77,1.703 -1.69,1.703 h -16.22 c -0.93,0 -1.18,-0.511 -1.69,-1.703 l -6.67,-17.773 z m -8.59,27.812 c 5.57,0 8.82,-4.254 10.95,-10.039 l 16.16,-45.617 h -8.77 l -7.29,19.492 h -38.63 l -7.14,-19.492 h -8.37 l 16.82,45.617 c 2.16,6.215 4.49,10.039 10.05,10.039 h 16.22"
         style="fill:#ffffff;fill-opacity:1;fill-rule:nonzero;stroke:none"
         id="path66" /><path
         d="m 1925.25,275.273 c -0.92,0 -1.7,-0.789 -1.7,-1.703 v -35.55 c 0,-0.946 0.78,-1.704 1.7,-1.704 h 45.44 v -8.363 h -45.44 c -5.56,0 -10.05,4.481 -10.05,10.067 v 35.55 c 0,5.555 4.49,10.039 10.05,10.039 h 45.44 v -8.336 h -45.44"
         style="fill:#ffffff;fill-opacity:1;fill-rule:nonzero;stroke:none"
         id="path68" /><path
         d="m 2044.01,283.609 v -55.656 h -8.35 v 23.641 h -40.28 v -23.641 h -8.34 v 55.656 h 8.34 v -23.636 h 40.28 v 23.636 h 8.35"
         style="fill:#ffffff;fill-opacity:1;fill-rule:nonzero;stroke:none"
         id="path70" /><path
         d="m 1407.84,237.969 c 0,-0.934 -0.76,-1.707 -1.7,-1.707 h -35.53 c -0.93,0 -1.7,0.761 -1.7,1.707 l -0.02,16.621 c 0,0.234 0.05,0.457 0.13,0.66 0.28,0.602 0.96,1.035 1.94,1.035 h 4.16 5.95 l 26.77,-16.902 z m 18.16,-1.785 -9.8,6.14 v 15.953 h -8.36 v -10.711 c 0,0 -30.44,19.129 -30.64,19.207 l -0.16,0.106 c -0.52,0.289 -0.89,0.82 -0.9,1.461 v 5.109 c 0,0.934 0.78,1.699 1.71,1.699 h 20.55 c 0.94,0 1.71,-0.765 1.71,-1.699 v -3.691 h 8.33 v 5.48 c -0.83,4.715 -5.09,8.336 -10.04,8.336 h -20.55 c -5.57,0 -10.03,-4.48 -10.03,-10.039 0,0 0,-6.238 0,-6.265 0.25,-2.856 1.59,-3.84 4.32,-5.438 l -1.54,0.004 c -5.58,0 -10.06,-1.656 -10.06,-7.231 v -16.617 c 0,-5.586 4.47,-10.066 10.05,-10.066 h 35.55 c 4.35,0 8.03,2.723 9.44,6.562 l 0.03,-0.004 10.39,-6.558 v 8.262"
         style="fill:#ffffff;fill-opacity:1;fill-rule:nonzero;stroke:none"
         id="path72" /></g></g></svg>
