<svg width="27" height="22" viewBox="0 0 27 22" fill="none" xmlns="http://www.w3.org/2000/svg">
<path d="M26.9121 10.9658C26.9121 10.4971 26.7363 10.0967 26.3848 9.76465L17.3027 0.667969C17.1172 0.492188 16.9219 0.360352 16.7168 0.272461C16.5215 0.18457 16.3213 0.140625 16.1162 0.140625C15.6475 0.140625 15.2617 0.291992 14.959 0.594727C14.6562 0.887695 14.5049 1.25879 14.5049 1.70801C14.5049 1.94238 14.5488 2.16211 14.6367 2.36719C14.7246 2.5625 14.8418 2.7334 14.9883 2.87988L18.0938 6.01465L23.1182 10.6143L23.7041 9.61816L18.7529 9.33984H2.2002C1.70215 9.33984 1.29688 9.49121 0.984375 9.79395C0.681641 10.0967 0.530273 10.4873 0.530273 10.9658C0.530273 11.4541 0.681641 11.8496 0.984375 12.1523C1.29688 12.4551 1.70215 12.6064 2.2002 12.6064H18.7529L23.7041 12.3135L23.1182 11.3467L18.0938 15.9316L14.9883 19.0664C14.8418 19.2129 14.7246 19.3887 14.6367 19.5938C14.5488 19.7891 14.5049 20.0039 14.5049 20.2383C14.5049 20.6875 14.6562 21.0586 14.959 21.3516C15.2617 21.6445 15.6475 21.791 16.1162 21.791C16.5459 21.791 16.9316 21.625 17.2734 21.293L26.3848 12.1816C26.7363 11.8496 26.9121 11.4443 26.9121 10.9658Z" fill="black"/>
</svg>
