<svg width="28" height="32" viewBox="0 0 28 32" fill="none" xmlns="http://www.w3.org/2000/svg">
<path d="M7.3457 31.9697H20.4561C21.4326 31.9697 22.1895 31.7158 22.7266 31.208C23.2734 30.7002 23.5713 29.9629 23.6201 28.9961L24.4844 9.04492H26.3594C26.7207 9.04492 27.0283 8.92285 27.2822 8.67871C27.5361 8.43457 27.6631 8.12207 27.6631 7.74121C27.6631 7.37988 27.5361 7.07715 27.2822 6.83301C27.0283 6.58887 26.7207 6.4668 26.3594 6.4668H1.42773C1.06641 6.4668 0.758789 6.58887 0.504883 6.83301C0.250977 7.07715 0.124023 7.37988 0.124023 7.74121C0.124023 8.12207 0.250977 8.43457 0.504883 8.67871C0.758789 8.92285 1.06641 9.04492 1.42773 9.04492H3.30273L4.18164 28.9961C4.2207 29.9629 4.51367 30.7002 5.06055 31.208C5.60742 31.7158 6.36914 31.9697 7.3457 31.9697ZM9.42578 27.6338C9.14258 27.6338 8.9082 27.5508 8.72266 27.3848C8.54688 27.209 8.4541 26.9746 8.44434 26.6816L8.03418 12.0771C8.02441 11.7939 8.10742 11.5645 8.2832 11.3887C8.46875 11.2129 8.70801 11.125 9.00098 11.125C9.29395 11.125 9.5332 11.2129 9.71875 11.3887C9.9043 11.5547 10.002 11.7842 10.0117 12.0771L10.4219 26.667C10.4316 26.96 10.3438 27.1943 10.1582 27.3701C9.97266 27.5459 9.72852 27.6338 9.42578 27.6338ZM13.8936 27.6338C13.6006 27.6338 13.3564 27.5459 13.1611 27.3701C12.9756 27.1943 12.8828 26.9648 12.8828 26.6816V12.0625C12.8828 11.7793 12.9756 11.5547 13.1611 11.3887C13.3564 11.2129 13.6006 11.125 13.8936 11.125C14.1963 11.125 14.4404 11.2129 14.626 11.3887C14.8115 11.5547 14.9043 11.7793 14.9043 12.0625V26.6816C14.9043 26.9648 14.8115 27.1943 14.626 27.3701C14.4404 27.5459 14.1963 27.6338 13.8936 27.6338ZM18.3467 27.6338C18.0439 27.6338 17.7998 27.5459 17.6143 27.3701C17.4385 27.1943 17.3555 26.96 17.3652 26.667L17.7754 12.0771C17.7852 11.7842 17.8828 11.5547 18.0684 11.3887C18.2539 11.2129 18.4932 11.125 18.7861 11.125C19.0889 11.125 19.3281 11.2129 19.5039 11.3887C19.6797 11.5645 19.7627 11.7939 19.7529 12.0771L19.3428 26.6816C19.333 26.9746 19.2354 27.209 19.0498 27.3848C18.874 27.5508 18.6396 27.6338 18.3467 27.6338ZM7.36035 6.97949H10.3779V4.5332C10.3779 4.23047 10.4707 3.99121 10.6562 3.81543C10.8418 3.62988 11.1055 3.53711 11.4473 3.53711H16.3252C16.6572 3.53711 16.9209 3.62988 17.1162 3.81543C17.3115 3.99121 17.4092 4.23047 17.4092 4.5332V6.97949H20.3975V4.41602C20.3975 3.29297 20.0557 2.41406 19.3721 1.7793C18.6885 1.14453 17.7363 0.827148 16.5156 0.827148H11.2422C10.0215 0.827148 9.06934 1.14453 8.38574 1.7793C7.70215 2.41406 7.36035 3.29297 7.36035 4.41602V6.97949Z" fill="white"/>
</svg>
