<svg width="24" height="24" viewBox="0 0 24 24" fill="none" xmlns="http://www.w3.org/2000/svg">
<path d="M4.35352 22.498L20.1299 6.73633L17.3613 3.96777L1.58496 19.7295L0.222656 23.0547C0.134766 23.2793 0.178711 23.4795 0.354492 23.6553C0.530273 23.8311 0.725586 23.8848 0.94043 23.8164L4.35352 22.498ZM21.5068 5.38867L23.0449 3.86523C23.4258 3.48438 23.6211 3.08887 23.6309 2.67871C23.6504 2.26855 23.4893 1.8877 23.1475 1.53613L22.5762 0.964844C22.2246 0.613281 21.8438 0.452148 21.4336 0.481445C21.0332 0.510742 20.6426 0.710938 20.2617 1.08203L18.709 2.60547L21.5068 5.38867Z" fill="white"/>
</svg>
