<svg width="23" height="24" viewBox="0 0 23 24" fill="none" xmlns="http://www.w3.org/2000/svg">
<path d="M0.554688 10.0039C0.554688 11.2617 0.789062 12.4414 1.25781 13.543C1.72656 14.6445 2.37891 15.6133 3.21484 16.4492C4.05078 17.2852 5.01562 17.9375 6.10938 18.4062C7.21094 18.875 8.39062 19.1094 9.64844 19.1094C10.5625 19.1094 11.4297 18.9805 12.25 18.7227C13.0703 18.4648 13.832 18.1055 14.5352 17.6445L19.4805 22.5898C19.6523 22.7617 19.8477 22.8867 20.0664 22.9648C20.293 23.0508 20.5234 23.0938 20.7578 23.0938C21.1016 23.0938 21.4062 23.0117 21.6719 22.8477C21.9375 22.6914 22.1484 22.4766 22.3047 22.2031C22.4609 21.9375 22.5391 21.6367 22.5391 21.3008C22.5391 21.0664 22.4961 20.8398 22.4102 20.6211C22.3242 20.4023 22.1992 20.207 22.0352 20.0352L17.1367 15.125C17.6445 14.3984 18.0391 13.6016 18.3203 12.7344C18.6094 11.8672 18.7539 10.957 18.7539 10.0039C18.7539 8.75391 18.5156 7.57812 18.0391 6.47656C17.5703 5.375 16.918 4.41016 16.082 3.58203C15.2539 2.74609 14.2891 2.08984 13.1875 1.61328C12.0859 1.13672 10.9062 0.898438 9.64844 0.898438C8.39062 0.898438 7.21094 1.13672 6.10938 1.61328C5.01562 2.08984 4.05078 2.74609 3.21484 3.58203C2.37891 4.41016 1.72656 5.375 1.25781 6.47656C0.789062 7.57812 0.554688 8.75391 0.554688 10.0039ZM3.09766 10.0039C3.09766 9.09766 3.26562 8.25 3.60156 7.46094C3.94531 6.67188 4.41797 5.97656 5.01953 5.375C5.62109 4.77344 6.31641 4.30469 7.10547 3.96875C7.89453 3.63281 8.74219 3.46484 9.64844 3.46484C10.5547 3.46484 11.4023 3.63281 12.1914 3.96875C12.9805 4.30469 13.6758 4.77344 14.2773 5.375C14.8789 5.97656 15.3477 6.67188 15.6836 7.46094C16.0273 8.25 16.1992 9.09766 16.1992 10.0039C16.1992 10.9102 16.0273 11.7617 15.6836 12.5586C15.3477 13.3477 14.8789 14.043 14.2773 14.6445C13.6758 15.2383 12.9805 15.707 12.1914 16.0508C11.4023 16.3867 10.5547 16.5547 9.64844 16.5547C8.74219 16.5547 7.89453 16.3867 7.10547 16.0508C6.31641 15.707 5.62109 15.2383 5.01953 14.6445C4.41797 14.043 3.94531 13.3477 3.60156 12.5586C3.26562 11.7617 3.09766 10.9102 3.09766 10.0039Z" fill="black"/>
</svg>
