<svg width="27" height="28" viewBox="0 0 27 28" fill="none" xmlns="http://www.w3.org/2000/svg">
<path d="M0.640625 26.7207C0.804688 26.8965 1.00391 27.0078 1.23828 27.0547C1.47266 27.1133 1.70117 27.1133 1.92383 27.0547C2.14648 27.0078 2.35156 26.8965 2.53906 26.7207L13.3145 15.9277L24.1074 26.7207C24.3652 26.9785 24.6816 27.1074 25.0566 27.1074C25.4316 27.1191 25.748 26.9902 26.0059 26.7207C26.2637 26.4512 26.3926 26.1289 26.3926 25.7539C26.3926 25.3789 26.2637 25.0684 26.0059 24.8223L15.2129 14.0293L26.0059 3.23633C26.2637 2.99023 26.3926 2.67969 26.3926 2.30469C26.4043 1.91797 26.2754 1.5957 26.0059 1.33789C25.748 1.08008 25.4316 0.951172 25.0566 0.951172C24.6816 0.951172 24.3652 1.08008 24.1074 1.33789L13.3145 12.1309L2.53906 1.33789C2.35156 1.17383 2.14648 1.0625 1.92383 1.00391C1.70117 0.945313 1.47266 0.945313 1.23828 1.00391C1.00391 1.05078 0.804688 1.16211 0.640625 1.33789C0.464844 1.51367 0.347656 1.71875 0.289062 1.95312C0.230469 2.17578 0.230469 2.4043 0.289062 2.63867C0.347656 2.87305 0.464844 3.07227 0.640625 3.23633L11.416 14.0293L0.640625 24.8223C0.464844 24.9863 0.341797 25.1855 0.271484 25.4199C0.212891 25.6543 0.212891 25.8887 0.271484 26.123C0.330078 26.3574 0.453125 26.5566 0.640625 26.7207Z" fill="white"/>
</svg>
